<?xml version="1.0" encoding="UTF-8"?>
<svg width="32px" height="32px" viewBox="0 0 32 32" version="1.1" xmlns="http://www.w3.org/2000/svg" xmlns:xlink="http://www.w3.org/1999/xlink">
    <title>4EC2CB8C-BA6F-4128-9A4C-E4B42C4D89C0</title>
    <g id="Page-1" stroke="none" stroke-width="1" fill="none" fill-rule="evenodd">
        <g id="先生一覧" transform="translate(-112.000000, -84.000000)" fill="#212423" fill-rule="nonzero">
            <g id="icon/teacher" transform="translate(112.000000, 84.000000)">
                <path d="M29.6000102,23.9999504 C30.9234934,23.9999504 32.0000045,22.8874531 32.0000045,21.5204641 L32.0000045,5.67948628 C32.0000045,4.31249735 30.9234934,3.2 29.6000102,3.2 L10.400056,3.2 C9.07657284,3.2 8.00006174,4.31249735 8.00006174,5.67948628 L8.00006174,7.99998856 C9.17105504,7.99998856 10.2550368,8.33900142 11.2000541,8.88997667 L11.2000541,6.39999237 L28.8000121,6.39999237 L28.8000121,20.799958 L25.6000198,20.799958 L25.6000198,17.5999657 L19.200035,17.5999657 L19.200035,20.799958 L15.3880324,20.799958 C16.3430594,21.6344775 17.0440343,22.7364769 17.3725492,23.9999504 L29.6000102,23.9999504 Z M8.00006174,19.1999619 C10.651032,19.1999619 12.8000503,17.0509435 12.8000503,14.3999733 C12.8000503,11.7490031 10.651032,9.59998474 8.00006174,9.59998474 C5.3490915,9.59998474 3.20007318,11.7490031 3.20007318,14.3999733 C3.20007318,17.0509435 5.3490915,19.1999619 8.00006174,19.1999619 Z M13.6000484,28.799939 C14.9135218,28.799939 15.9930603,27.7439356 16.0001235,26.4309505 C16.0165465,23.3239755 13.5030271,20.799958 10.400056,20.799958 C10.2805739,20.799958 10.1610429,20.8174385 10.0470783,20.8544501 C9.39908184,21.0649476 8.7175405,21.1999571 8.00006174,21.1999571 C7.28258298,21.1999571 6.60104164,21.0649476 5.95255685,20.8544501 C5.83854345,20.8174385 5.7195496,20.799958 5.60006746,20.799958 C2.49709634,20.799958 -0.0164230558,23.3239755 1.42108547e-14,26.4309505 C0.0070632163,27.7439356 1.08660166,28.799939 2.40007509,28.799939 L13.6000484,28.799939 Z" id="c"></path>
            </g>
        </g>
    </g>
</svg>